{"title":"Fingerprints Don't Lie(1951)MPEG-4[DaScubaDude]","uid":14323739,"size":563772916,"categoryP":"video","categoryS":"movies","magnet":"?xt=urn:btih:629e8f290c5fe9511e924c9b7a911e720610ad10&amp;dn=Fingerprints+Don%27t+Lie%281951%29MPEG-4%5BDaScubaDude%5D&amp;tr=udp%3A%2F%2Ftracker.leechers-paradise.org%3A6969&amp;tr=udp%3A%2F%2Fzer0day.ch%3A1337&amp;tr=udp%3A%2F%2Fopen.demonii.com%3A1337&amp;tr=udp%3A%2F%2Ftracker.coppersurfer.tk%3A6969&amp;tr=udp%3A%2F%2Fexodus.desync.com%3A6969","seeders":0,"leechers":0,"uploader":"dascuba","files":1,"time":1460632415,"description":"Fingerprints Don't Lie (1951)\r\nApproved | 57min | Crime, Drama | 23 February 1951 (USA)\r\nThe killing of Mayor Palmer is being placed on Paul Moody by fingerprint expert Jim Stover as Moody's prints were found on the murder weapon. When reporter Brad Evans places doubt in ... \r\nDirector: Sam Newfield (as Samuel Newfield)\r\nWriters: Orville H. Hampton (original screenplay) (as Orville Hampton), Rupert Hughes (based on a story by)\r\nStars: Richard Travis, Sheila Ryan, Sid Melton |\r\n\r\nGeneral\r\nComplete name                            : FingerprintsForgottenNoir6_Title6.mp4\r\nFormat                                   : MPEG-4\r\nFormat profile                           : Base Media\r\nCodec ID                                 : isom\r\nFile size                                : 538 MiB\r\nDuration                                 : 56mn 15s\r\nOverall bit rate mode                    : Variable\r\nOverall bit rate                         : 1 336 Kbps\r\nMovie name                               : ForgottenNoir6\r\nWriting application                      : Lavf54.6.100\r\n\r\nVideo\r\nID                                       : 1\r\nFormat                                   : AVC\r\nFormat/Info                              : Advanced Video Codec\r\nFormat profile                           :   \r\nFormat settings, CABAC                   : No\r\nFormat settings, ReFrames                : 6 frames\r\nCodec ID                                 : avc1\r\nCodec ID/Info                            : Advanced Video Coding\r\nDuration                                 : 56mn 15s\r\nBit rate                                 : 1 202 Kbps\r\nWidth                                    : 720 pixels\r\nHeight                                   : 540 pixels\r\nDisplay aspect ratio                     : 4:3\r\nFrame rate mode                          : Constant\r\nFrame rate                               : 29.970 fps\r\nColor space                              : YUV\r\nChroma subsampling                       : 4:2:0\r\nBit depth                                : 8 bits\r\nScan type                                : Progressive\r\nBits/(Pixel*Frame)                       : 0.103\r\nStream size                              : 483 MiB (90%)\r\n\r\nAudio\r\nID                                       : 2\r\nFormat                                   : AAC\r\nFormat/Info                              : Advanced Audio Codec\r\nFormat profile                           : LC\r\nCodec ID                                 : 40\r\nDuration                                 : 56mn 15s\r\nBit rate mode                            : Variable\r\nBit rate                                 : 128 Kbps\r\nMaximum bit rate                         : 174 Kbps\r\nChannel(s)                               : 2 channels\r\nChannel positions                        : Front: L R\r\nSampling rate                            : 44.1 KHz\r\nCompression mode                         : Lossy\r\nStream size                              : 51.5 MiB (10%)","torrent":{"xt":"urn:btih:629e8f290c5fe9511e924c9b7a911e720610ad10","amp;dn":"Fingerprints+Don%27t+Lie%281951%29MPEG-4%5BDaScubaDude%5D","amp;tr":["udp%3A%2F%2Ftracker.leechers-paradise.org%3A6969","udp%3A%2F%2Fzer0day.ch%3A1337","udp%3A%2F%2Fopen.demonii.com%3A1337","udp%3A%2F%2Ftracker.coppersurfer.tk%3A6969","udp%3A%2F%2Fexodus.desync.com%3A6969"],"infoHash":"629e8f290c5fe9511e924c9b7a911e720610ad10","infoHashBuffer":{"type":"Buffer","data":[98,158,143,41,12,95,233,81,30,146,76,155,122,145,30,114,6,16,173,16]},"announce":[],"urlList":[]}}